<?xml version="1.0" encoding="UTF-8"?>
<!DOCTYPE svg PUBLIC "-//W3C//DTD SVG 1.1//EN" "http://www.w3.org/Graphics/SVG/1.1/DTD/svg11.dtd">
<svg xmlns="http://www.w3.org/2000/svg" version="1.1" width="40px" height="44px" style="shape-rendering:geometricPrecision; text-rendering:geometricPrecision; image-rendering:optimizeQuality; fill-rule:evenodd; clip-rule:evenodd" xmlns:xlink="http://www.w3.org/1999/xlink">
<g><path style="opacity:0.839" fill="#ae2025" d="M 30.5,5.5 C 30.631,6.23891 30.4643,6.90558 30,7.5C 28.6439,6.61983 27.1439,6.28649 25.5,6.5C 23.4175,5.41232 21.2508,4.41232 19,3.5C 16.0691,4.71645 13.2358,6.04978 10.5,7.5C 9.43236,6.56552 8.09903,6.23219 6.5,6.5C 14.1003,-1.11116 22.1003,-1.4445 30.5,5.5 Z"/></g>
<g><path style="opacity:0.992" fill="#a41f23" d="M 25.5,9.5 C 20.6531,9.71465 15.9865,9.71465 11.5,9.5C 16.2381,5.57736 20.9048,5.57736 25.5,9.5 Z"/></g>
<g><path style="opacity:0.851" fill="#a11f24" d="M 6.5,6.5 C 8.09903,6.23219 9.43236,6.56552 10.5,7.5C 7.99058,8.92126 5.65725,10.5879 3.5,12.5C 2.16667,12.5 0.833333,12.5 -0.5,12.5C -0.5,12.1667 -0.5,11.8333 -0.5,11.5C 0.967116,8.71021 3.30045,7.04354 6.5,6.5 Z"/></g>
<g><path style="opacity:0.979" fill="#9f1f23" d="M 11.5,9.5 C 15.9865,9.71465 20.6531,9.71465 25.5,9.5C 27.8185,9.99249 29.8185,10.9925 31.5,12.5C 23.1667,12.5 14.8333,12.5 6.5,12.5C 7.96492,11.2632 9.63159,10.2632 11.5,9.5 Z"/></g>
<g><path style="opacity:0.945" fill="#a11f23" d="M 30.5,5.5 C 33.9203,6.35704 36.2536,8.35704 37.5,11.5C 36.791,12.404 35.791,12.7373 34.5,12.5C 31.4771,10.4667 28.4771,8.46671 25.5,6.5C 27.1439,6.28649 28.6439,6.61983 30,7.5C 30.4643,6.90558 30.631,6.23891 30.5,5.5 Z"/></g>
<g><path style="opacity:0.808" fill="#981e22" d="M 37.5,11.5 C 38.4511,12.9187 38.7845,14.5853 38.5,16.5C 37.5,15.1667 36.5,15.1667 35.5,16.5C 35.1667,15.1667 34.8333,13.8333 34.5,12.5C 35.791,12.7373 36.791,12.404 37.5,11.5 Z"/></g>
<g><path style="opacity:0.971" fill="#981e22" d="M 6.5,12.5 C 14.8333,12.5 23.1667,12.5 31.5,12.5C 32.1667,13.8333 32.8333,15.1667 33.5,16.5C 30.1667,16.5 26.8333,16.5 23.5,16.5C 23.1667,16.5 22.8333,16.5 22.5,16.5C 16.9463,15.609 11.7796,15.609 7,16.5C 6.28281,15.9558 5.78281,15.2891 5.5,14.5C 5.32842,13.5084 5.66175,12.8417 6.5,12.5 Z"/></g>
<g><path style="opacity:0.902" fill="#931d21" d="M 5.5,14.5 C 5.78281,15.2891 6.28281,15.9558 7,16.5C 11.7796,15.609 16.9463,15.609 22.5,16.5C 19.5,16.5 16.5,16.5 13.5,16.5C 13.5,17.5 13.5,18.5 13.5,19.5C 10.2251,19.7615 7.22514,19.4282 4.5,18.5C 4.23219,16.901 4.56552,15.5676 5.5,14.5 Z"/></g>
<g><path style="opacity:0.914" fill="#941e21" d="M -0.5,12.5 C 0.833333,12.5 2.16667,12.5 3.5,12.5C 2.63137,14.717 2.29803,17.0504 2.5,19.5C 1.5,19.5 0.5,19.5 -0.5,19.5C -0.5,17.1667 -0.5,14.8333 -0.5,12.5 Z"/></g>
<g><path style="opacity:0.861" fill="#8e1d20" d="M 23.5,16.5 C 26.8333,16.5 30.1667,16.5 33.5,16.5C 33.5,18.8333 33.5,21.1667 33.5,23.5C 32.7784,23.0825 32.2784,22.4158 32,21.5C 29.2172,22.5977 26.3839,22.5977 23.5,21.5C 23.5,19.8333 23.5,18.1667 23.5,16.5 Z"/></g>
<g><path style="opacity:0.944" fill="#8c1d20" d="M 4.5,18.5 C 7.22514,19.4282 10.2251,19.7615 13.5,19.5C 13.5,20.5 13.5,21.5 13.5,22.5C 10.3003,21.6954 7.30028,21.6954 4.5,22.5C 4.5,21.1667 4.5,19.8333 4.5,18.5 Z"/></g>
<g><path style="opacity:0.916" fill="#8e1d20" d="M 38.5,16.5 C 38.5,18.5 38.5,20.5 38.5,22.5C 37.5,22.5 36.5,22.5 35.5,22.5C 35.5,20.5 35.5,18.5 35.5,16.5C 36.5,15.1667 37.5,15.1667 38.5,16.5 Z"/></g>
<g><path style="opacity:0.916" fill="#881d1f" d="M -0.5,19.5 C 0.5,19.5 1.5,19.5 2.5,19.5C 2.5,21.1667 2.5,22.8333 2.5,24.5C 1.39105,24.5569 0.391047,24.8902 -0.5,25.5C -0.5,23.5 -0.5,21.5 -0.5,19.5 Z"/></g>
<g><path style="opacity:0.928" fill="#861d1f" d="M 13.5,22.5 C 13.5,23.5 13.5,24.5 13.5,25.5C 10.5701,24.701 7.57006,24.3677 4.5,24.5C 4.5,23.8333 4.5,23.1667 4.5,22.5C 7.30028,21.6954 10.3003,21.6954 13.5,22.5 Z"/></g>
<g><path style="opacity:1" fill="#861d1f" d="M 23.5,21.5 C 26.3839,22.5977 29.2172,22.5977 32,21.5C 32.2784,22.4158 32.7784,23.0825 33.5,23.5C 33.5,24.1667 33.5,24.8333 33.5,25.5C 30.1667,25.1667 26.8333,24.8333 23.5,24.5C 23.5,23.5 23.5,22.5 23.5,21.5 Z"/></g>
<g><path style="opacity:0.995" fill="#7f1c1e" d="M 4.5,24.5 C 7.57006,24.3677 10.5701,24.701 13.5,25.5C 14.964,26.1599 16.6307,26.4932 18.5,26.5C 20.6397,26.4439 22.3064,25.7773 23.5,24.5C 26.8333,24.8333 30.1667,25.1667 33.5,25.5C 33.0113,26.9952 32.3446,28.3285 31.5,29.5C 23.0161,28.507 14.3494,28.1736 5.5,28.5C 4.76589,27.2921 4.43255,25.9587 4.5,24.5 Z"/></g>
<g><path style="opacity:0.905" fill="#811c1e" d="M 35.5,22.5 C 36.5,22.5 37.5,22.5 38.5,22.5C 38.5,24.5 38.5,26.5 38.5,28.5C 37.1667,28.5 35.8333,28.5 34.5,28.5C 35.3414,26.6208 35.6747,24.6208 35.5,22.5 Z"/></g>
<g><path style="opacity:0.899" fill="#7b1b1d" d="M 2.5,24.5 C 2.51715,26.5648 2.85048,28.5648 3.5,30.5C 2.79105,31.404 1.79105,31.7373 0.5,31.5C 0.166667,31.5 -0.166667,31.5 -0.5,31.5C -0.5,29.5 -0.5,27.5 -0.5,25.5C 0.391047,24.8902 1.39105,24.5569 2.5,24.5 Z"/></g>
<g><path style="opacity:0.943" fill="#791b1d" d="M 5.5,28.5 C 14.3494,28.1736 23.0161,28.507 31.5,29.5C 30.0351,30.7368 28.3684,31.7368 26.5,32.5C 21.1667,31.1667 15.8333,31.1667 10.5,32.5C 8.24602,31.8763 6.57935,30.543 5.5,28.5 Z"/></g>
<g><path style="opacity:0.767" fill="#781a1c" d="M 34.5,28.5 C 35.8333,28.5 37.1667,28.5 38.5,28.5C 38.3404,30.153 37.6737,31.4863 36.5,32.5C 35.4324,31.5655 34.099,31.2322 32.5,31.5C 33.5511,30.7777 34.2178,29.7777 34.5,28.5 Z"/></g>
<g><path style="opacity:0.805" fill="#741a1c" d="M 3.5,30.5 C 5.88157,31.3507 7.88157,32.684 9.5,34.5C 7.83333,34.5 6.16667,34.5 4.5,34.5C 2.59565,34.2624 1.26231,33.2624 0.5,31.5C 1.79105,31.7373 2.79105,31.404 3.5,30.5 Z"/></g>
<g><path style="opacity:0.93" fill="#731b1c" d="M 10.5,32.5 C 15.8333,31.1667 21.1667,31.1667 26.5,32.5C 24.2844,34.1936 21.7844,35.5269 19,36.5C 15.8194,35.7984 12.9861,34.4651 10.5,32.5 Z"/></g>
<g><path style="opacity:0.839" fill="#731b1c" d="M 32.5,31.5 C 34.099,31.2322 35.4324,31.5655 36.5,32.5C 36.0269,33.9063 35.0269,34.573 33.5,34.5C 31.5,34.5 29.5,34.5 27.5,34.5C 28.9649,33.2632 30.6316,32.2632 32.5,31.5 Z"/></g>
<g><path style="opacity:0.832" fill="#6d1a1b" d="M 4.5,34.5 C 6.16667,34.5 7.83333,34.5 9.5,34.5C 11.2838,34.8925 12.9505,35.5592 14.5,36.5C 13.1667,37.1667 11.8333,37.8333 10.5,38.5C 8.11843,37.6493 6.11843,36.316 4.5,34.5 Z"/></g>
<g><path style="opacity:0.836" fill="#6d1a1a" d="M 27.5,34.5 C 29.5,34.5 31.5,34.5 33.5,34.5C 31.6644,36.588 29.3311,37.9213 26.5,38.5C 25.2905,38.0679 24.2905,37.4013 23.5,36.5C 24.6049,35.3995 25.9382,34.7329 27.5,34.5 Z"/></g>
<g><path style="opacity:0.862" fill="#67191a" d="M 14.5,36.5 C 17.4222,39.034 20.4222,39.034 23.5,36.5C 24.2905,37.4013 25.2905,38.0679 26.5,38.5C 24.6682,40.8942 22.1682,41.8942 19,41.5C 15.709,41.6889 12.8756,40.6889 10.5,38.5C 11.8333,37.8333 13.1667,37.1667 14.5,36.5 Z"/></g>
</svg>
