<?xml version="1.0" encoding="UTF-8"?>
<!DOCTYPE svg PUBLIC "-//W3C//DTD SVG 1.1//EN" "http://www.w3.org/Graphics/SVG/1.1/DTD/svg11.dtd">
<svg xmlns="http://www.w3.org/2000/svg" version="1.1" width="38px" height="48px" style="shape-rendering:geometricPrecision; text-rendering:geometricPrecision; image-rendering:optimizeQuality; fill-rule:evenodd; clip-rule:evenodd" xmlns:xlink="http://www.w3.org/1999/xlink">
<g><path style="opacity:0.004" fill="#00ff00" d="M 17.5,5.5 C 17.5,6.16667 17.1667,6.5 16.5,6.5C 14.1667,7.16667 11.8333,7.83333 9.5,8.5C 11.6174,6.3455 14.284,5.3455 17.5,5.5 Z"/></g>
<g><path style="opacity:0.004" fill="#15ff12" d="M 23.5,5.5 C 26.3311,6.0787 28.6644,7.41203 30.5,9.5C 29.8333,9.5 29.5,9.83333 29.5,10.5C 28.7777,9.44886 27.7777,8.78219 26.5,8.5C 25.3065,7.72813 24.3065,6.72813 23.5,5.5 Z"/></g>
<g><path style="opacity:1" fill="#dcf9d9" d="M 21.5,4.5 C 21.5,6.16667 21.5,7.83333 21.5,9.5C 21.5,9.83333 21.5,10.1667 21.5,10.5C 20.1266,10.3433 18.7932,10.51 17.5,11C 18.6956,11.6543 18.6956,12.1543 17.5,12.5C 15.9745,12.0057 14.6412,11.339 13.5,10.5C 13.8333,9.83333 14.1667,9.16667 14.5,8.5C 15.5,8.16667 16.1667,7.5 16.5,6.5C 17.1667,6.5 17.5,6.16667 17.5,5.5C 18.265,4.33977 19.265,3.33977 20.5,2.5C 21.2975,2.95689 21.6309,3.62356 21.5,4.5 Z"/></g>
<g><path style="opacity:1" fill="#82e981" d="M 21.5,4.5 C 22.1667,4.83333 22.8333,5.16667 23.5,5.5C 24.3065,6.72813 25.3065,7.72813 26.5,8.5C 27.1098,9.39105 27.4431,10.391 27.5,11.5C 25.5786,10.6373 23.5786,9.97065 21.5,9.5C 21.5,7.83333 21.5,6.16667 21.5,4.5 Z"/></g>
<g><path style="opacity:1" fill="#79f57a" d="M 21.5,9.5 C 23.5786,9.97065 25.5786,10.6373 27.5,11.5C 27.2865,13.1439 27.6198,14.6439 28.5,16C 26.8034,16.3845 25.1368,16.2178 23.5,15.5C 22.5,15.1667 21.8333,14.5 21.5,13.5C 21.5,12.5 21.5,11.5 21.5,10.5C 21.5,10.1667 21.5,9.83333 21.5,9.5 Z"/></g>
<g><path style="opacity:1" fill="#caf8c6" d="M 12.5,10.5 C 12.8333,10.5 13.1667,10.5 13.5,10.5C 14.6412,11.339 15.9745,12.0057 17.5,12.5C 18.6956,12.1543 18.6956,11.6543 17.5,11C 18.7932,10.51 20.1266,10.3433 21.5,10.5C 21.5,11.5 21.5,12.5 21.5,13.5C 20.5,13.8333 19.8333,14.5 19.5,15.5C 17.1667,15.5 14.8333,15.5 12.5,15.5C 12.5,13.8333 12.5,12.1667 12.5,10.5 Z"/></g>
<g><path style="opacity:0.008" fill="#60ff64" d="M 16.5,6.5 C 16.1667,7.5 15.5,8.16667 14.5,8.5C 10.9505,9.72316 7.95053,11.7232 5.5,14.5C 4.47061,16.5168 3.47061,18.5168 2.5,20.5C 1.83333,20.1667 1.16667,19.8333 0.5,19.5C 1.84828,14.4639 4.84828,10.7972 9.5,8.5C 11.8333,7.83333 14.1667,7.16667 16.5,6.5 Z"/></g>
<g><path style="opacity:0.059" fill="#5cdc75" d="M 14.5,8.5 C 14.1667,9.16667 13.8333,9.83333 13.5,10.5C 13.1667,10.5 12.8333,10.5 12.5,10.5C 11.7515,11.531 11.0848,12.6976 10.5,14C 8.82001,13.2288 7.15335,13.3955 5.5,14.5C 7.95053,11.7232 10.9505,9.72316 14.5,8.5 Z"/></g>
<g><path style="opacity:0.008" fill="#5aff58" d="M 30.5,9.5 C 31.2389,9.36899 31.9056,9.53566 32.5,10C 34.0657,12.3256 35.7324,14.4922 37.5,16.5C 37.5,17.8333 37.5,19.1667 37.5,20.5C 36.6618,20.8417 36.3284,21.5084 36.5,22.5C 35.6554,21.3285 34.9887,19.9952 34.5,18.5C 33.5539,15.5913 31.8872,13.258 29.5,11.5C 29.5,11.1667 29.5,10.8333 29.5,10.5C 29.5,9.83333 29.8333,9.5 30.5,9.5 Z"/></g>
<g><path style="opacity:1" fill="#aff5ad" d="M 12.5,15.5 C 14.8333,15.5 17.1667,15.5 19.5,15.5C 18.8333,16.5 18.1667,17.5 17.5,18.5C 15.2188,18.9227 13.5521,18.256 12.5,16.5C 12.5,16.1667 12.5,15.8333 12.5,15.5 Z"/></g>
<g><path style="opacity:1" fill="#77f481" d="M 26.5,8.5 C 27.7777,8.78219 28.7777,9.44886 29.5,10.5C 29.5,10.8333 29.5,11.1667 29.5,11.5C 28.9569,11.56 28.6236,11.8933 28.5,12.5C 29.1667,14.1667 29.8333,15.8333 30.5,17.5C 30.0431,18.2975 29.3764,18.6309 28.5,18.5C 28.1667,18.5 27.8333,18.5 27.5,18.5C 27.1667,18.5 26.8333,18.5 26.5,18.5C 25.3065,17.7281 24.3065,16.7281 23.5,15.5C 25.1368,16.2178 26.8034,16.3845 28.5,16C 27.6198,14.6439 27.2865,13.1439 27.5,11.5C 27.4431,10.391 27.1098,9.39105 26.5,8.5 Z"/></g>
<g><path style="opacity:0.071" fill="#55de7b" d="M 29.5,11.5 C 31.8872,13.258 33.5539,15.5913 34.5,18.5C 33.5655,19.5676 33.2322,20.901 33.5,22.5C 33.1667,22.5 32.8333,22.5 32.5,22.5C 32.1667,21.5 31.5,20.8333 30.5,20.5C 29.8333,19.8333 29.1667,19.1667 28.5,18.5C 29.3764,18.6309 30.0431,18.2975 30.5,17.5C 29.8333,15.8333 29.1667,14.1667 28.5,12.5C 28.6236,11.8933 28.9569,11.56 29.5,11.5 Z"/></g>
<g><path style="opacity:0.067" fill="#60e278" d="M 12.5,10.5 C 12.5,12.1667 12.5,13.8333 12.5,15.5C 12.5,15.8333 12.5,16.1667 12.5,16.5C 12.1667,16.5 11.8333,16.5 11.5,16.5C 11.5654,16.0618 11.3988,15.7284 11,15.5C 9.84555,16.7433 8.51221,17.7433 7,18.5C 6.50999,19.7932 6.34332,21.1266 6.5,22.5C 5.07546,20.9689 4.40879,21.3023 4.5,23.5C 3.83333,23.5 3.5,23.1667 3.5,22.5C 3.67158,21.5084 3.33825,20.8417 2.5,20.5C 3.47061,18.5168 4.47061,16.5168 5.5,14.5C 7.15335,13.3955 8.82001,13.2288 10.5,14C 11.0848,12.6976 11.7515,11.531 12.5,10.5 Z"/></g>
<g><path style="opacity:1" fill="#1c8c3d" d="M 21.5,13.5 C 21.8333,14.5 22.5,15.1667 23.5,15.5C 24.3065,16.7281 25.3065,17.7281 26.5,18.5C 25.2502,18.5774 24.4169,19.244 24,20.5C 23.6012,20.2716 23.4346,19.9382 23.5,19.5C 23.2172,18.7109 22.7172,18.0442 22,17.5C 20.951,19.1066 19.451,19.7733 17.5,19.5C 17.5,19.1667 17.5,18.8333 17.5,18.5C 18.1667,17.5 18.8333,16.5 19.5,15.5C 19.8333,14.5 20.5,13.8333 21.5,13.5 Z"/></g>
<g><path style="opacity:1" fill="#8def8f" d="M 11.5,16.5 C 11.8333,16.5 12.1667,16.5 12.5,16.5C 13.5521,18.256 15.2188,18.9227 17.5,18.5C 17.5,18.8333 17.5,19.1667 17.5,19.5C 16.8333,19.5 16.5,19.8333 16.5,20.5C 16.1667,21.5 15.5,22.1667 14.5,22.5C 13.791,21.596 12.791,21.2627 11.5,21.5C 11.5,19.8333 11.5,18.1667 11.5,16.5 Z"/></g>
<g><path style="opacity:1" fill="#0b5526" d="M 26.5,18.5 C 26.8333,18.5 27.1667,18.5 27.5,18.5C 26.7711,21.3152 25.7711,23.3152 24.5,24.5C 23.3509,24.2089 22.6842,23.3756 22.5,22C 22.528,20.9302 22.8614,20.0968 23.5,19.5C 23.4346,19.9382 23.6012,20.2716 24,20.5C 24.4169,19.244 25.2502,18.5774 26.5,18.5 Z"/></g>
<g><path style="opacity:1" fill="#0f6b2f" d="M 23.5,19.5 C 22.8614,20.0968 22.528,20.9302 22.5,22C 22.6842,23.3756 23.3509,24.2089 24.5,24.5C 24.5,24.8333 24.5,25.1667 24.5,25.5C 20.8873,26.4109 20.554,28.0775 23.5,30.5C 22.0387,31.6857 20.7054,31.6857 19.5,30.5C 19.5,30.1667 19.5,29.8333 19.5,29.5C 20.9462,26.9994 21.4462,24.3327 21,21.5C 19.6439,20.6198 18.1439,20.2865 16.5,20.5C 16.5,19.8333 16.8333,19.5 17.5,19.5C 19.451,19.7733 20.951,19.1066 22,17.5C 22.7172,18.0442 23.2172,18.7109 23.5,19.5 Z"/></g>
<g><path style="opacity:1" fill="#59dc67" d="M 11.5,16.5 C 11.5,18.1667 11.5,19.8333 11.5,21.5C 12.791,21.2627 13.791,21.596 14.5,22.5C 14.4431,23.609 14.1098,24.609 13.5,25.5C 12.0267,26.0715 10.36,26.0715 8.5,25.5C 7.09368,25.0269 6.42702,24.0269 6.5,22.5C 6.34332,21.1266 6.50999,19.7932 7,18.5C 8.51221,17.7433 9.84555,16.7433 11,15.5C 11.3988,15.7284 11.5654,16.0618 11.5,16.5 Z"/></g>
<g><path style="opacity:1" fill="#196934" d="M 27.5,18.5 C 27.8333,18.5 28.1667,18.5 28.5,18.5C 29.1667,19.1667 29.8333,19.8333 30.5,20.5C 30.2042,23.993 28.5375,25.1596 25.5,24C 26.056,24.3826 26.3893,24.8826 26.5,25.5C 25.8333,25.5 25.1667,25.5 24.5,25.5C 24.5,25.1667 24.5,24.8333 24.5,24.5C 25.7711,23.3152 26.7711,21.3152 27.5,18.5 Z"/></g>
<g><path style="opacity:1" fill="#003c18" d="M 16.5,20.5 C 18.1439,20.2865 19.6439,20.6198 21,21.5C 21.4462,24.3327 20.9462,26.9994 19.5,29.5C 17.5,29.5 15.5,29.5 13.5,29.5C 13.5,28.1667 13.5,26.8333 13.5,25.5C 14.1098,24.609 14.4431,23.609 14.5,22.5C 15.5,22.1667 16.1667,21.5 16.5,20.5 Z"/></g>
<g><path style="opacity:0.008" fill="#6bfb73" d="M 0.5,19.5 C 1.16667,19.8333 1.83333,20.1667 2.5,20.5C 3.33825,20.8417 3.67158,21.5084 3.5,22.5C 2.41383,22.62 1.74716,23.2867 1.5,24.5C 2.15558,26.4534 2.48891,28.4534 2.5,30.5C 1.83333,30.1667 1.16667,29.8333 0.5,29.5C 0.767809,27.901 0.434475,26.5676 -0.5,25.5C -0.5,24.8333 -0.5,24.1667 -0.5,23.5C 0.833333,23.1667 0.833333,22.8333 -0.5,22.5C -0.5,22.1667 -0.5,21.8333 -0.5,21.5C 0.338246,21.1583 0.67158,20.4916 0.5,19.5 Z"/></g>
<g><path style="opacity:1" fill="#368448" d="M 30.5,20.5 C 31.5,20.8333 32.1667,21.5 32.5,22.5C 32.5,24.8333 32.5,27.1667 32.5,29.5C 31.8333,30.1667 31.1667,30.8333 30.5,31.5C 29.1667,31.5 27.8333,31.5 26.5,31.5C 24.9671,29.2104 25.3004,28.5437 27.5,29.5C 28.8092,27.7605 28.4759,26.4271 26.5,25.5C 26.3893,24.8826 26.056,24.3826 25.5,24C 28.5375,25.1596 30.2042,23.993 30.5,20.5 Z"/></g>
<g><path style="opacity:0.027" fill="#4bd664" d="M 34.5,18.5 C 34.9887,19.9952 35.6554,21.3285 36.5,22.5C 36.628,24.6547 36.128,26.6547 35,28.5C 34.5357,27.9056 34.369,27.2389 34.5,26.5C 34.7678,24.901 34.4345,23.5676 33.5,22.5C 33.2322,20.901 33.5655,19.5676 34.5,18.5 Z"/></g>
<g><path style="opacity:0.873" fill="#63b06d" d="M 6.5,22.5 C 6.42702,24.0269 7.09368,25.0269 8.5,25.5C 7.65859,27.3792 7.32526,29.3792 7.5,31.5C 7.06233,32.5063 6.39567,32.5063 5.5,31.5C 5.72137,28.7212 5.38803,26.0545 4.5,23.5C 4.40879,21.3023 5.07546,20.9689 6.5,22.5 Z"/></g>
<g><path style="opacity:0.071" fill="#4ee175" d="M 32.5,22.5 C 32.8333,22.5 33.1667,22.5 33.5,22.5C 34.4345,23.5676 34.7678,24.901 34.5,26.5C 33.5155,28.5979 33.8489,30.5979 35.5,32.5C 35.5,33.1667 35.1667,33.5 34.5,33.5C 33.0755,35.0311 32.4088,34.6977 32.5,32.5C 32.5,31.5 32.5,30.5 32.5,29.5C 32.5,27.1667 32.5,24.8333 32.5,22.5 Z"/></g>
<g><path style="opacity:1" fill="#13662e" d="M 8.5,25.5 C 10.36,26.0715 12.0267,26.0715 13.5,25.5C 13.5,26.8333 13.5,28.1667 13.5,29.5C 13.4326,30.9587 13.7659,32.2921 14.5,33.5C 12.079,33.1218 9.74571,32.4552 7.5,31.5C 7.32526,29.3792 7.65859,27.3792 8.5,25.5 Z"/></g>
<g><path style="opacity:0.043" fill="#63f66f" d="M 37.5,20.5 C 37.5,23.1667 37.5,25.8333 37.5,28.5C 36.6554,29.6715 35.9887,31.0048 35.5,32.5C 33.8489,30.5979 33.5155,28.5979 34.5,26.5C 34.369,27.2389 34.5357,27.9056 35,28.5C 36.128,26.6547 36.628,24.6547 36.5,22.5C 36.3284,21.5084 36.6618,20.8417 37.5,20.5 Z"/></g>
<g><path style="opacity:1" fill="#053f1c" d="M 24.5,25.5 C 25.1667,25.5 25.8333,25.5 26.5,25.5C 28.4759,26.4271 28.8092,27.7605 27.5,29.5C 25.3004,28.5437 24.9671,29.2104 26.5,31.5C 25.209,31.7373 24.209,31.404 23.5,30.5C 20.554,28.0775 20.8873,26.4109 24.5,25.5 Z"/></g>
<g><path style="opacity:0.004" fill="#00ff00" d="M 37.5,28.5 C 37.5,29.8333 37.5,31.1667 37.5,32.5C 36.8999,33.9002 35.8999,34.9002 34.5,35.5C 34.5,34.8333 34.5,34.1667 34.5,33.5C 35.1667,33.5 35.5,33.1667 35.5,32.5C 35.9887,31.0048 36.6554,29.6715 37.5,28.5 Z"/></g>
<g><path style="opacity:0.059" fill="#54dc75" d="M 3.5,22.5 C 3.5,23.1667 3.83333,23.5 4.5,23.5C 5.38803,26.0545 5.72137,28.7212 5.5,31.5C 5.67158,32.4916 5.33825,33.1583 4.5,33.5C 3.83333,32.5 3.16667,31.5 2.5,30.5C 2.48891,28.4534 2.15558,26.4534 1.5,24.5C 1.74716,23.2867 2.41383,22.62 3.5,22.5 Z"/></g>
<g><path style="opacity:1" fill="#015725" d="M 13.5,29.5 C 15.5,29.5 17.5,29.5 19.5,29.5C 19.5,29.8333 19.5,30.1667 19.5,30.5C 18.1667,31.1667 17.1667,32.1667 16.5,33.5C 15.8333,34.8333 15.1667,34.8333 14.5,33.5C 13.7659,32.2921 13.4326,30.9587 13.5,29.5 Z"/></g>
<g><path style="opacity:1" fill="#2f8940" d="M 19.5,30.5 C 20.7054,31.6857 22.0387,31.6857 23.5,30.5C 24.209,31.404 25.209,31.7373 26.5,31.5C 27.8333,31.5 29.1667,31.5 30.5,31.5C 29.5637,32.9744 28.2303,33.9744 26.5,34.5C 23.0613,34.7471 19.728,34.4137 16.5,33.5C 17.1667,32.1667 18.1667,31.1667 19.5,30.5 Z"/></g>
<g><path style="opacity:1" fill="#52b35a" d="M 5.5,31.5 C 6.39567,32.5063 7.06233,32.5063 7.5,31.5C 9.74571,32.4552 12.079,33.1218 14.5,33.5C 15.1667,34.8333 15.8333,34.8333 16.5,33.5C 19.728,34.4137 23.0613,34.7471 26.5,34.5C 26.1583,35.3382 25.4916,35.6716 24.5,35.5C 19.8531,36.6176 15.1864,36.6176 10.5,35.5C 9.20895,35.2627 8.20895,35.596 7.5,36.5C 6.5,35.5 5.5,34.5 4.5,33.5C 5.33825,33.1583 5.67158,32.4916 5.5,31.5 Z"/></g>
<g><path style="opacity:0.016" fill="#58f95d" d="M 0.5,29.5 C 1.16667,29.8333 1.83333,30.1667 2.5,30.5C 3.16667,31.5 3.83333,32.5 4.5,33.5C 5.5,34.5 6.5,35.5 7.5,36.5C 7.5,37.5 7.5,38.5 7.5,39.5C 3.69268,37.2253 1.35935,33.8919 0.5,29.5 Z"/></g>
<g><path style="opacity:0.024" fill="#58ea5c" d="M 32.5,32.5 C 32.4088,34.6977 33.0755,35.0311 34.5,33.5C 34.5,34.1667 34.5,34.8333 34.5,35.5C 32.8333,36.5 31.5,37.8333 30.5,39.5C 30.1788,41.0481 29.1788,41.7148 27.5,41.5C 28.6154,38.1132 30.2821,35.1132 32.5,32.5 Z"/></g>
<g><path style="opacity:0.004" fill="#00ff00" d="M 34.5,35.5 C 34.1667,37.8333 32.8333,39.1667 30.5,39.5C 31.5,37.8333 32.8333,36.5 34.5,35.5 Z"/></g>
<g><path style="opacity:0.141" fill="#6bdf71" d="M 32.5,29.5 C 32.5,30.5 32.5,31.5 32.5,32.5C 30.2821,35.1132 28.6154,38.1132 27.5,41.5C 25.2417,41.2249 24.9084,40.2249 26.5,38.5C 25.675,37.6143 24.675,37.281 23.5,37.5C 23.8333,36.8333 24.1667,36.1667 24.5,35.5C 25.4916,35.6716 26.1583,35.3382 26.5,34.5C 28.2303,33.9744 29.5637,32.9744 30.5,31.5C 31.1667,30.8333 31.8333,30.1667 32.5,29.5 Z"/></g>
<g><path style="opacity:1" fill="#79d776" d="M 10.5,35.5 C 15.1864,36.6176 19.8531,36.6176 24.5,35.5C 24.1667,36.1667 23.8333,36.8333 23.5,37.5C 22.5084,37.3284 21.8417,37.6618 21.5,38.5C 20.8333,38.8333 20.1667,39.1667 19.5,39.5C 17.2537,38.7904 14.9204,38.2904 12.5,38C 11.6195,37.2917 10.9528,36.4584 10.5,35.5 Z"/></g>
<g><path style="opacity:0.875" fill="#6de577" d="M 10.5,35.5 C 10.9528,36.4584 11.6195,37.2917 12.5,38C 14.9204,38.2904 17.2537,38.7904 19.5,39.5C 19.6309,40.3764 19.2975,41.0431 18.5,41.5C 16.9291,40.6906 15.2624,40.3573 13.5,40.5C 11.6096,40.7035 10.1096,40.0368 9,38.5C 8.61742,39.056 8.11742,39.3893 7.5,39.5C 7.5,38.5 7.5,37.5 7.5,36.5C 8.20895,35.596 9.20895,35.2627 10.5,35.5 Z"/></g>
<g><path style="opacity:1" fill="#7cf783" d="M 21.5,38.5 C 22.0967,38.7352 22.4301,39.2352 22.5,40C 21.9444,41.0111 21.2778,41.8444 20.5,42.5C 20.1667,43.1667 19.8333,43.8333 19.5,44.5C 18.391,44.4431 17.391,44.1098 16.5,43.5C 15.6935,42.2719 14.6935,41.2719 13.5,40.5C 15.2624,40.3573 16.9291,40.6906 18.5,41.5C 19.2975,41.0431 19.6309,40.3764 19.5,39.5C 20.1667,39.1667 20.8333,38.8333 21.5,38.5 Z"/></g>
<g><path style="opacity:1" fill="#72f577" d="M 21.5,38.5 C 21.8417,37.6618 22.5084,37.3284 23.5,37.5C 24.675,37.281 25.675,37.6143 26.5,38.5C 24.9084,40.2249 25.2417,41.2249 27.5,41.5C 26.791,42.404 25.791,42.7373 24.5,42.5C 23.1667,42.5 21.8333,42.5 20.5,42.5C 21.2778,41.8444 21.9444,41.0111 22.5,40C 22.4301,39.2352 22.0967,38.7352 21.5,38.5 Z"/></g>
<g><path style="opacity:0.005" fill="#26ff23" d="M 13.5,40.5 C 14.6935,41.2719 15.6935,42.2719 16.5,43.5C 13.0567,42.9408 10.0567,41.6074 7.5,39.5C 8.11742,39.3893 8.61742,39.056 9,38.5C 10.1096,40.0368 11.6096,40.7035 13.5,40.5 Z"/></g>
<g><path style="opacity:0.004" fill="#00ff00" d="M 20.5,42.5 C 21.8333,42.5 23.1667,42.5 24.5,42.5C 23.0697,43.5375 21.403,44.2041 19.5,44.5C 19.8333,43.8333 20.1667,43.1667 20.5,42.5 Z"/></g>
</svg>
